<svg xmlns="http://www.w3.org/2000/svg" xmlns:xlink="http://www.w3.org/1999/xlink" version="1.1" x="0px" y="0px" viewBox="0 0 248.9 294.9" enable-background="new 0 0 248.9 294.9" xml:space="preserve"><style>.style0{fill:	#66C189;}.style1{fill:	#0B1E23;}</style><g><g><g><path d="M201.5 57.4c0.1 1.8 0 3.5 0 5.3c0 0.1-0.1 0.2-0.1 0.4c-0.3 0-0.6 0.1-1 0.1c-1.2 0-2.4 0-3.6 0 c-2.8-0.1-5.7 0.2-8.5 0.5c-2.2 0.2-4.4 0.5-6.6 0.9c-4 0.7-8 1.4-11.9 2.2c-6.1 1.2-12.1 2.4-18.2 3.6c-2.7 0.5-5.5 1.1-8.2 1.6 c-3.3 0.6-6.6 1-9.9 1.2c-4.1 0.3-8.2 0.3-12.4 0.2c-4.5-0.2-8.9-0.7-13.3-1.4c-4.5-0.7-8.8-1.9-13.2-3 c-5.8-1.5-11.7-2.6-17.7-3.5c-4.8-0.7-9.5-1.2-14.3-1.6c-1.7-0.2-3.4-0.2-5.1-0.3c-0.5 0-0.9 0-1.4-0.1c-1-0.3-2.1-0.3-3.1-0.2 c-1.5 0-3 0-4.5 0c0-0.2-0.1-0.3-0.1-0.5c0-1.8-0.1-3.7 0.1-5.5c0.1-2 0.4-4.1 0.8-6.1c0.5-2.9 1.2-5.7 2.2-8.5 c0.7-2 1.6-3.9 2.7-5.6c0.2-0.3 0.3-0.6 0.5-0.9c2.7-5.2 5.4-10.4 7.9-15.6c0.6-1.2 1.2-2.5 1.7-3.8c0.2-0.6 0.6-1 1.1-1.2 c2.7-1.4 5.5-2.5 8.3-3.5C79 10.3 84.4 9 89.9 8c3.8-0.7 7.6-1.3 11.4-1.7c3.5-0.4 7.1-0.6 10.6-0.9c4.5-0.3 9-0.4 13.5-0.4 c5.1 0 10.2 0.2 15.2 0.5c6.2 0.4 12.5 1.1 18.6 2.2c6.9 1.2 13.8 2.9 20.4 5.5c1.8 0.7 3.4 1.5 5.1 2.3c0.5 0.2 0.8 0.5 1 1 c1.6 4.1 3.7 8 5.7 12c1 1.9 1.9 3.8 2.9 5.7c0.6 1.2 1.3 2.4 2 3.6c1.4 2.4 2.4 5 3.1 7.7C200.6 49.5 201.2 53.4 201.5 57.4z" class="style0"/><path d="M190.9 156c3.1 0 6.1-0.4 9.1-0.9c0.4-0.1 0.7-0.1 1.1-0.2c0.1 0 0.2 0 0.3 0c0 0.2 0.1 0.4 0.1 0.7 c0 0.3 0 0.7 0 1c0 13.1 0 26.1 0 39.2c0 2.2-0.3 4.3-0.9 6.4c-0.8 2.9-2 5.8-3.2 8.5c-1.5 3.5-3.3 6.8-5.2 10.1 c-0.2 0.4-0.4 0.8-0.6 1.1c-0.8 0.9-1 2-1.1 3.1c-0.1 2.4-0.1 4.8 0.1 7.1c0.2 1.7 0.2 3.4 0.4 5.1c0 0.4 0.1 0.8 0.1 1.2 c0.6 0.3 1.1 0.2 1.6 0.3c0.7 0.1 1.3 0.1 2 0.2c0.2 0 0.5 0.1 0.7 0.2c0.6 0.3 0.8 0.7 0.8 1.3c-0.1 0.4-0.2 0.9-0.3 1.3 c-0.3 0.9-0.8 1.8-1.4 2.7c-0.7 1-1.4 1.9-2 2.8c-0.3 0.4-0.7 0.7-1.1 0.9c-1.5 0.6-3 1.2-4.6 1.8c-3.4 1.1-7 1.9-10.6 2.5 c-5 0.9-10 1.5-15 1.9c-4.2 0.4-8.5 0.6-12.7 0.9c-9.1 0.5-18.2 0.6-27.3 0.5c-5.4-0.1-10.8-0.1-16.3-0.4 c-5.1-0.2-10.2-0.5-15.3-1c-5.9-0.5-11.9-1.3-17.7-2.4c-3.5-0.7-6.9-1.5-10.2-2.8c-0.3-0.1-0.5-0.2-0.8-0.3 c-2.8-1.1-2.8-1.1-4.6-3.6c-0.8-1.1-1.5-2.1-1.9-3.4c-0.2-0.5-0.3-1-0.3-1.5c-0.1-0.7 0.2-1.1 0.8-1.4c0.7-0.3 1.4-0.4 2.2-0.4 c0.7 0 1.3 0 2-0.2c0.1-0.8 0.2-1.5 0.2-2.3c0.2-2.4 0.4-4.7 0.5-7.1c0-1.8 0-3.6-0.3-5.3c-0.1-0.5-0.3-1-0.5-1.4 c-1.4-2.1-2.6-4.4-3.8-6.6c-1.9-3.6-3.6-7.3-4.9-11.1c-0.6-1.7-1.1-3.4-1.4-5.2c-0.1-0.9-0.3-1.8-0.3-2.7c0-13.6 0-27.1 0-40.7 c0-0.4 0-0.7 0.1-1.2c0.3 0 0.5 0 0.8 0.1c5.7 1.1 11.4 1.4 17.2 1c2.1-0.1 4.2-0.3 6.4-0.6c7.4-0.9 14-3.8 19.8-8.4 c3.6-2.9 6.6-6.2 9.3-9.9c5.1-6.8 8.8-14.3 11.4-22.4c1-3.1 1.9-6.3 2.8-9.5c0.6-2.2 1.5-4.3 2.5-6.4c0.6-1.4 1.8-2.2 3.3-2.3 c2.2-0.2 4.3-0.2 6.5 0.2c1.3 0.2 2.4 0.8 3.4 1.8c0.6 0.7 1.2 1.4 1.6 2.2c1.3 2.4 2.3 4.9 3 7.5c1.4 4.9 3 9.7 5 14.4 c1.7 4 3.6 7.9 5.9 11.6c4.2 6.6 9.7 11.9 16.6 15.6c4.4 2.4 9.1 3.9 14 4.9C182.3 155.6 186.6 156 190.9 156z M185.3 240.6 L185.3 240.6c-0.3 0-0.6 0.1-0.9 0.2c-1.4 0.7-2.9 1.3-4.4 1.8c-5 1.6-10.2 2.3-15.4 3c-3.1 0.4-6.1 0.6-9.2 0.8 c-3.7 0.3-7.4 0.5-11.1 0.6c-6.5 0.2-12.9 0.4-19.4 0.3c-5.8-0.1-11.6-0.1-17.4-0.2c-7-0.1-14.1-0.4-21.1-1 c-4.7-0.4-9.4-0.9-14-1.8c-2.9-0.6-5.9-1.3-8.6-2.6c0 0-0.1 0-0.3 0.1c0.3 0.2 0.5 0.4 0.7 0.5c0.9 0.5 1.8 0.9 2.7 1.3 c2.8 1.2 5.6 2 8.6 2.7c3.9 0.9 7.8 1.6 11.7 2.1c3.6 0.4 7.1 0.9 10.7 1.2c3.6 0.3 7.2 0.5 10.7 0.6c6.5 0.3 13 0.4 19.5 0.3 c6-0.1 11.9-0.2 17.9-0.6c2.3-0.2 4.6-0.3 6.9-0.6c3.5-0.4 7-0.8 10.5-1.4c4.8-0.8 9.5-1.8 14.1-3.3c2.4-0.8 4.7-1.7 6.8-3.1 C184.6 241.3 185 240.9 185.3 240.6z" class="style0"/><path d="M201.4 72.4c0.1 1.1 0.2 73.4 0 74.9c-0.2 0.1-0.5 0.2-0.8 0.2c-2.9 0.3-5.8 0.7-8.7 1 c-5.3 0.6-10.5-0.2-15.6-1.7c-4.9-1.4-9.4-3.7-13.5-6.9c-4.8-3.7-8.6-8.3-11.4-13.6c-3.4-6.7-6.3-13.6-8.4-20.8 c-0.8-3-1.4-6-1.6-9.1c-0.1-2.3 0.1-4.6 0.7-6.8c0.9-3.1 2.7-5.5 5.2-7.5c1.8-1.4 3.7-2.6 5.7-3.7c4.8-2.5 9.9-4.3 15.2-5.5 c4.5-1 9-1.5 13.6-1.6c3.7-0.1 7.3 0 11 0.3c2.2 0.2 4.3 0.4 6.5 0.6C200.1 72.2 200.7 72.3 201.4 72.4z" class="style0"/><path d="M109.4 93.5c0.1 2.4-0.1 4.8-0.6 7.2c-1.3 6.9-3.4 13.6-6.5 19.9c-1.8 3.8-4 7.5-6.4 11 c-3.1 4.4-6.8 8.1-11.4 10.9c-4.4 2.7-9.2 4.4-14.2 5.2c-4.8 0.8-9.6 0.8-14.3 0.3c-2-0.2-4-0.5-6.1-0.8 c-0.4-0.1-0.8-0.2-1.3-0.3c0-0.3-0.1-0.6-0.1-0.9c0-0.3 0-0.6 0-0.9c0-23.7 0-47.3 0-71c0-0.5 0-1.1 0-1.8c0.8-0.1 1.4-0.2 2-0.2 c2.4-0.2 4.8-0.4 7.2-0.7c2-0.2 3.9-0.3 5.9-0.4c1.9-0.1 3.8-0.1 5.6 0c2.6 0.1 5.2 0.3 7.7 0.6c7.8 1.1 15.3 3.3 22.3 7.1 c2.1 1.1 4 2.4 5.6 4.1C107.7 86 109.2 89.4 109.4 93.5z" class="style0"/><path d="M110.4 276.1c-5.2-0.1-10.4-0.4-15.6-0.8l0.1-2.5c2.9 0.1 5.8 0.2 8.8 0.2c4.1 0 8.2 0 12.3-0.1 c3.9-0.1 7.8-0.2 11.8-0.4c3.2-0.1 6.4-0.4 9.6-0.6c3.3-0.2 6.6-0.5 9.9-0.8c5.3-0.6 10.6-1.2 15.9-2.1c5.3-0.9 10.6-2 15.9-3.5 c3.6-1 7.1-2.3 10.4-4c1.3-0.7 2.6-1.5 3.8-2.4c0.1-0.1 0.4-0.2 0.2-0.5l2 0.4c-0.4 1.8-1.1 3.6-2 5.3c-0.1 0.3-0.3 0.5-0.4 0.8 c-0.6 1.5-1.7 2.4-3.1 3.2c-1.7 0.9-3.5 1.7-5.4 2.3c-3.3 1.1-6.7 1.9-10.1 2.5c-4.4 0.8-8.7 1.4-13.1 1.8 c-4.4 0.4-8.9 0.8-13.4 1c-6.1 0.3-12.2 0.5-18.3 0.5C123.1 276.3 116.7 276.3 110.4 276.1z" class="style0"/><path d="M72.8 270.1c-2.1-0.5-4.1-1.1-6.1-1.9c-0.5-0.2-1.1-0.5-1.6-0.8c-0.1-0.1-0.2-0.2-0.2-0.3 c1.2 0.3 2.3 0.7 3.5 1c2.3 0.6 4.7 0.9 7 1.2c5.3 0.6 10.6 0.8 16 0.9c7.1 0.1 14.1 0 21.1-0.3c2.3-0.1 4.7-0.2 7-0.3 c5.5-0.3 11-0.5 16.5-0.9c4.7-0.3 9.5-0.7 14.2-1.1c4.8-0.5 9.6-1 14.4-1.6c6.2-0.8 12.3-1.8 18.3-3.5c1.2-0.3 2.4-0.7 3.6-1.1 c2.6-0.9 4-1.5 6.6-3c0.2 0.3-0.1 0.4-0.2 0.5c-1.1 1-2.4 1.8-3.8 2.4c-3.3 1.7-6.8 2.9-10.4 4c-5.2 1.5-10.5 2.6-15.9 3.5 c-5.3 0.9-10.6 1.6-15.9 2.1c-3.3 0.4-6.6 0.6-9.9 0.8c-3.2 0.2-6.4 0.5-9.6 0.6c-3.9 0.2-7.8 0.3-11.8 0.4 c-4.1 0.1-8.2 0.1-12.3 0.1c-2.9 0-5.8-0.1-8.8-0.2c-2.3-0.1-4.7-0.3-7-0.5C82.8 271.9 77.8 271.3 72.8 270.1z" class="style1"/><path d="M64.9 267.1C64.9 267.1 64.9 267.1 64.9 267.1C64.9 267.1 64.9 267.1 64.9 267.1L64.9 267.1z" class="style1"/><path d="M66.9 243.6c-0.9-0.4-1.8-0.9-2.7-1.3c-0.3-0.1-0.5-0.3-0.7-0.5c0.1 0 0.2-0.1 0.3-0.1 c2.7 1.3 5.6 2 8.6 2.6c4.6 0.9 9.3 1.4 14 1.8c7 0.6 14.1 0.9 21.1 1c5.8 0.1 11.6 0.1 17.4 0.2c6.5 0.1 12.9-0.1 19.4-0.3 c3.7-0.1 7.4-0.4 11.1-0.6c3.1-0.2 6.2-0.5 9.2-0.8c5.2-0.6 10.4-1.4 15.4-3c1.5-0.5 3-1 4.4-1.8c0.2-0.1 0.5-0.2 0.8-0.3 l0.1 0.1c-0.3 0.3-0.7 0.6-1 0.9c-2.1 1.4-4.4 2.3-6.8 3.1c-4.6 1.5-9.3 2.5-14.1 3.3c-3.5 0.6-7 1-10.5 1.4 c-2.3 0.2-4.6 0.4-6.9 0.6c-5.9 0.4-11.9 0.5-17.9 0.6c-6.5 0.1-13 0-19.5-0.3c-3.6-0.1-7.2-0.3-10.7-0.6 c-3.6-0.3-7.1-0.7-10.7-1.2c-3.9-0.5-7.8-1.1-11.7-2.1C72.5 245.7 69.6 244.9 66.9 243.6z" class="style1"/><path d="M193.7 279.5c0-2.6 0-5.2 0-7.8c0-0.1-0.1-0.2-0.2-0.3c-0.2 0-0.3 0.1-0.4 0.1c-0.3 0.2-0.6 0.4-0.9 0.6 c-0.1 1.3-0.1 7.2 0 8.2C192.9 280.2 193.3 280 193.7 279.5z M195.4 271.2c-0.1 1.7-0.1 3.4 0 5.2 C195.6 274.7 195.6 272.9 195.4 271.2z M190.6 277.1c0-1.3 0.1-2.6-0.1-4c-0.5 0.2-0.9 0.4-1.3 0.6c-0.1 1.9-0.1 7 0.1 8 c0.5 0 0.9-0.2 1.4-0.6C190.6 279.8 190.6 278.5 190.6 277.1z M187.5 282.2c0-2.3 0-4.7 0-7.1c0-0.2 0-0.3 0-0.5c0 0 0-0.1 0-0.1 c0 0-0.1 0-0.2-0.1c-0.4 0.1-0.8 0.2-1.2 0.5c-0.2 1.3-0.1 7 0.1 8C186.5 282.7 187.1 282.7 187.5 282.2z M182.9 283.8 c0.4-0.1 0.9-0.1 1.3-0.5c0-0.1 0.1-0.3 0.1-0.4c0-2.4 0-4.8 0-7.2c0 0 0-0.1 0-0.1c0 0-0.1 0-0.2-0.1c-0.2 0-0.4 0.1-0.5 0.1 c-0.2 0.1-0.4 0.2-0.6 0.3C182.7 277.5 182.8 282.9 182.9 283.8z M179.8 284.6c0.5 0.1 0.9-0.1 1.3-0.3c0.2-1.2 0.1-6.9 0-7.9 c-0.4 0-0.9 0-1.3 0.3c0 0.2-0.1 0.4-0.1 0.6c0 2.3 0 4.6 0 7C179.7 284.4 179.8 284.5 179.8 284.6z M174.9 285.8 c0.2-1.3 0.2-7.1 0-8.1c-0.5-0.1-0.9 0-1.3 0.2c-0.2 1.1-0.2 7.2 0 8.1c0.2 0 0.4 0 0.6-0.1C174.4 285.9 174.7 285.9 174.9 285.8 z M176.6 283.4c0 0.6-0.1 1.3 0.1 1.9c0.5 0 0.9-0.1 1.3-0.3c0-0.2 0.1-0.3 0.1-0.3c0-2.4 0-4.8 0-7.2c0-0.1-0.1-0.3-0.1-0.5 c-0.4 0.1-0.9 0.2-1.3 0.3c-0.1 0.7-0.1 1.4-0.1 2c0 0.7 0 1.3 0 2C176.6 282 176.5 282.7 176.6 283.4z M168.6 286.9 c0.2-2 0.1-7.3-0.1-8.2c-0.4 0-0.8 0.1-1.2 0.1c-0.1 0.3-0.1 0.4-0.1 0.5c0 2.5 0 4.9 0 7.4c0 0.1 0.1 0.3 0.1 0.5 c0.2 0 0.5 0 0.7-0.1C168.2 287 168.4 286.9 168.6 286.9z M170.4 278.5c-0.2 1.4-0.1 7.2 0 8.1c0.5 0.1 0.9 0 1.3-0.2 c0.1-0.9 0.2-5.4 0.1-7.5c0-0.2-0.1-0.4-0.1-0.6C171.2 278.1 170.8 278.2 170.4 278.5z M164 284.9c0 0.9-0.1 1.8 0.1 2.7 c0.5 0.1 0.9 0 1.3-0.2c0.2-1.6 0.1-7.3-0.1-8.3c-0.4 0-0.8 0.1-1.3 0.1c0 1 0 1.9 0 2.8C164 283 164 283.9 164 284.9z M161.1 279.5c-0.1 0.2-0.2 0.4-0.2 0.5c0 2.5 0 5 0 7.5c0 0.2 0.1 0.3 0.1 0.5c0.5 0.1 0.9 0 1.4-0.2c0-0.9 0-1.8 0-2.8 c0-1 0-1.9 0-2.9c0-0.9 0.1-1.8-0.1-2.7C161.9 279.5 161.5 279.5 161.1 279.5z M158 288.4c0.4-0.1 0.8-0.1 1.2-0.2 c0.1-0.2 0.1-0.4 0.1-0.6c0-2.5 0-4.9 0-7.4c0-0.2-0.1-0.4-0.2-0.6c-0.5 0-0.9-0.1-1.3 0.2c0 0.1-0.1 0.3-0.1 0.4 c0 2.5 0 5.1 0 7.6C157.8 288 157.9 288.2 158 288.4z M154.7 280.6c0 2.6 0 5.1 0 7.6c0 0.1 0.1 0.2 0.1 0.4 c0.4 0 0.8-0.1 1.3-0.1c0.1-0.3 0.1-0.4 0.1-0.5c0-2.5 0-5 0-7.5c0-0.2-0.1-0.4-0.2-0.6c-0.4 0-0.8 0.1-1.3 0.1 C154.8 280.3 154.7 280.5 154.7 280.6z M153.1 285.9c0-1 0-1.9 0-2.9c0-0.9 0.1-1.9-0.2-2.9c-0.4 0-0.8 0.1-1.3 0.1 c-0.1 1-0.1 2-0.1 2.9c0 1 0 1.9 0 2.9c0 0.9-0.1 1.9 0.1 2.8c0.4 0 0.8 0 1.3 0C153.2 287.8 153.1 286.9 153.1 285.9z M148.6 289.2c0.4 0 0.8 0 1.3-0.1c0.1-1.1 0-2 0.1-3c0-1 0-1.9 0-2.9c0-0.9 0.1-1.9-0.1-2.8c-0.5-0.1-0.9-0.1-1.3 0.1 c0 0.1-0.1 0.2-0.1 0.3c0 2.6 0 5.2 0 7.9C148.5 288.9 148.6 289 148.6 289.2z M146.7 280.6c-0.8-0.1-0.8 0-1.3 0.3 c0 2.7 0 5.5 0 8.2c0 0.1 0.1 0.2 0.2 0.4c0.4 0 0.7 0 1.2-0.1c0.1-0.3 0.1-0.4 0.1-0.6c0-2.5 0-5.1 0-7.6 C146.8 280.9 146.7 280.7 146.7 280.6z M137.5 289.1c0-2.6 0-5.3 0-7.9c0-0.1-0.1-0.1-0.1-0.3c-0.4 0-0.8 0-1.2 0 c-0.2 1.4-0.2 7.8 0 8.8c0.4 0.1 0.9 0.1 1.3-0.1C137.4 289.4 137.5 289.3 137.5 289.1z M142.3 280.7c-0.1 0.2-0.1 0.3-0.1 0.4 c0 2.6 0 5.2 0 7.9c0 0.1 0.1 0.3 0.2 0.5c0.4 0 0.8-0.1 1.2-0.1c0.1-0.2 0.1-0.3 0.1-0.4c0-2.6 0-5.2 0-7.9 c0-0.2-0.1-0.3-0.2-0.5c-0.2 0-0.5 0-0.7 0C142.7 280.7 142.6 280.7 142.3 280.7z M140.6 289.1c0-2.6 0-5.2 0-7.8 c0-0.1-0.1-0.3-0.1-0.5c-0.5-0.1-0.9-0.1-1.4 0.2c0 2.7 0 5.4 0 8.1c0 0.2 0.1 0.3 0.1 0.5c0.4 0 0.8 0 1.3 0 C140.6 289.4 140.6 289.2 140.6 289.1z M134.4 281.7c0-0.2-0.1-0.5-0.1-0.8c-0.5 0-0.9 0.1-1.3 0.1c-0.1 0.2-0.1 0.4-0.1 0.6 c0 2.6 0 5.3 0 7.9c0 0.1 0.1 0.2 0.2 0.4c0.4 0 0.9 0.2 1.3-0.2c0-0.2 0.1-0.4 0.1-0.6C134.4 286.6 134.4 284.1 134.4 281.7z M129.8 281c-0.1 0.9-0.2 6.9-0.1 8.3c0 0.2 0.1 0.3 0.1 0.4c0.7 0.2 0.7 0.1 1.4-0.1c0-1.4 0-2.9 0-4.3c0-1.4 0.1-2.9-0.1-4.4 C130.7 281 130.3 281 129.8 281z M128.1 289.3c0-2.6 0-5.1 0-7.7c0-0.2-0.1-0.4-0.2-0.6c-0.5-0.1-0.9-0.1-1.3 0.1 c0 0.1-0.1 0.2-0.1 0.4c0 2.6 0 5.2 0 7.8c0 0.2 0.1 0.3 0.1 0.6c0.5 0 0.9-0.1 1.3-0.1C128.1 289.6 128.1 289.5 128.1 289.3z M120.5 281c-0.1 0.3-0.1 0.4-0.1 0.6c0 2.6 0 5.2 0 7.8c0 0.2 0.1 0.4 0.2 0.5c0.5 0.1 0.9 0.2 1.3-0.1c0-0.1 0.1-0.3 0.1-0.4 c0-2.6 0-5.3 0-7.9c0-0.2-0.1-0.3-0.1-0.5C121.3 281 121 281 120.5 281z M118.7 285.4c0-0.7 0-1.4 0-2.1c0-0.7 0.1-1.5-0.1-2.3 c-0.5 0-0.9 0-1.3 0c0 0.2-0.1 0.4-0.1 0.5c0 2.6 0 5.2 0 7.9c0 0.1 0.1 0.3 0.2 0.5c0.2 0 0.4 0 0.5 0c0.2 0 0.4 0 0.8 0 c0-0.8 0-1.5 0-2.2C118.7 286.9 118.7 286.1 118.7 285.4z M124.8 289.9c0-0.2 0.1-0.4 0.1-0.5c0-2.6 0-5.2 0-7.7 c0-0.2-0.1-0.4-0.1-0.5c-0.5-0.1-0.9-0.2-1.3 0.2c0 0.9 0 1.9 0 2.8c0 1 0 2 0 3c0 1-0.1 1.9 0.1 2.9 C124 289.9 124.4 289.9 124.8 289.9z M114.1 287.5c0 0.7-0.1 1.5 0.1 2.2c0.5 0.2 0.9 0.2 1.3 0c0-0.2 0.1-0.3 0.1-0.4 c0-2.6 0-5.1 0-7.7c0-0.2-0.1-0.4-0.1-0.6c-0.2 0-0.5 0-0.7 0c-0.2 0-0.4 0-0.6 0.1c-0.2 0.8-0.1 1.5-0.1 2.1c0 0.8 0 1.5 0 2.2 C114.1 286.1 114.1 286.8 114.1 287.5z M112.4 289.6c0.1-1 0-1.9 0-2.9c0-1 0-2 0-3c0-0.9 0.1-1.9-0.1-2.8c-0.4 0-0.8 0-1.2 0 c-0.2 1-0.2 7.4 0 8.7C111.5 289.6 111.9 289.6 112.4 289.6z M109.3 289.1c0-2.6 0-5.1 0-7.7c0-0.2 0-0.3-0.1-0.4 c-0.4-0.3-0.8-0.2-1.3-0.2c0 0.3-0.1 0.5-0.1 0.8c0 2.4 0 4.8 0 7.2c0 0.2 0.1 0.5 0.1 0.7c0.5 0 0.9 0.2 1.3-0.1 C109.3 289.4 109.3 289.2 109.3 289.1z M106.2 288.9c0-2.6 0-5.2 0-7.8c0-0.1-0.1-0.2-0.1-0.4c-0.4 0-0.8 0-1.2 0 c-0.2 1-0.1 1.9-0.1 2.9c0 0.9 0 1.9 0 2.9c0 0.9-0.1 1.9 0.1 2.9c0.4 0 0.8 0 1.3 0C106.1 289.2 106.2 289 106.2 288.9z M103 280.7c-0.4-0.2-0.8-0.2-1.3-0.1c0 0.3-0.1 0.5-0.1 0.7c0 2.4 0 4.8 0 7.2c0 0.2 0.1 0.5 0.1 0.8c0.5 0 0.9 0 1.2 0 C103.2 288.2 103.2 281.9 103 280.7z M96.9 282.4c0-0.7 0.1-1.4-0.1-2.1c-0.5-0.1-0.9-0.2-1.4 0c0 1 0 1.9 0 2.8c0 1 0 1.9 0 2.9 c0 0.9-0.1 1.8 0.1 2.8c0.4 0 0.8 0.1 1.3 0.1c0.2-0.8 0.1-1.5 0.1-2.2c0-0.7 0-1.4 0-2.1S96.9 283.1 96.9 282.4z M98.6 280.5 c-0.2 1-0.2 7.2 0 8.4c0.4 0.1 0.8 0.2 1.3 0.1c0.1-0.2 0.1-0.3 0.1-0.4c0-2.6 0-5.1 0-7.7c0-0.1-0.1-0.2-0.1-0.4 C99.3 280.4 98.9 280.3 98.6 280.5z M89.2 288c0.4 0 0.8 0.1 1.3 0.1c0.2-0.8 0.1-1.5 0.1-2.2c0-0.7 0-1.3 0-2c0-0.7 0-1.4 0-2.1 c0-0.7 0.1-1.4-0.1-2.2c-0.4 0-0.8-0.1-1.3-0.1c-0.2 0.8-0.1 1.5-0.1 2.1c0 0.7 0 1.3 0 2c0 0.7 0 1.4 0 2.1 C89.1 286.6 89 287.3 89.2 288z M84.4 284.5c0-0.9 0-1.8 0-2.6c0-0.9 0.1-1.8-0.1-2.8c-0.4-0.1-0.8-0.1-1.3-0.2 c-0.2 1.3-0.2 7.1 0 8.2c0.4 0.2 0.8 0.3 1.4 0.2C84.3 286.4 84.4 285.5 84.4 284.5z M86.1 279.5c-0.2 1-0.2 7.1 0 8.1 c0.4 0.1 0.8 0.1 1.3 0.2c0.1-0.3 0.1-0.4 0.1-0.5c0-2.4 0-4.8 0-7.2c0-0.2-0.1-0.4-0.1-0.6C86.9 279.4 86.5 279.3 86.1 279.5z M93.7 280.7c0-0.2-0.1-0.5-0.2-0.7c-0.5-0.1-0.9-0.2-1.3 0c0 0.2-0.1 0.4-0.1 0.6c0 2.3 0 4.6 0 7c0 0.2 0.1 0.5 0.2 0.8 c0.4 0 0.8 0 1.3 0c0-0.2 0.1-0.4 0.1-0.6C93.7 285.4 93.7 283 93.7 280.7z M79.8 278.7c-0.2 1-0.2 6.7 0 7.9 c0.4 0.2 0.8 0.3 1.3 0.2c0.1-0.2 0.1-0.3 0.1-0.4c0-2.4 0-4.8 0-7.1c0-0.2-0.1-0.3-0.1-0.5C80.6 278.6 80.2 278.5 79.8 278.7z M75 278.2c0-0.2-0.1-0.3-0.2-0.5c-0.4-0.1-0.8-0.3-1.3 0c-0.1 0.8 0 1.7 0 2.6c0 0.8 0 1.7 0 2.5c0 0.9-0.1 1.7 0.1 2.7 c0.4 0.1 0.8 0.2 1.3 0.3c0.1-0.3 0.2-0.4 0.2-0.5C75 282.9 75 280.6 75 278.2z M78 278.3c-0.5-0.1-0.9-0.1-1.3-0.2 c0 0.3-0.1 0.5-0.1 0.7c0 2.2 0 4.5 0 6.8c0 0.2 0.1 0.4 0.1 0.6c0.5 0.1 0.9 0.1 1.3 0.2c0.1-1.4 0.1-2.7 0-4.1 C78.1 281 78.2 279.6 78 278.3z M70.3 280.9c0 1.3-0.1 2.5 0.1 3.8c0.5 0.2 0.9 0.4 1.3 0.2c0.2-1.2 0.1-6.6 0-7.7 c-0.4-0.1-0.8-0.3-1.4-0.2C70.3 278.3 70.3 279.6 70.3 280.9z M67.2 281.4c0 0.8-0.1 1.7 0.1 2.4c0.7 0.4 0.7 0.3 1.4 0.3 c0.2-0.8 0.1-1.6 0.1-2.5c0-0.9 0-1.8 0-2.6c0-0.8 0.1-1.7-0.1-2.5c-0.4-0.1-0.8-0.2-1.3-0.3c-0.1 0.9-0.1 1.7-0.1 2.5 C67.2 279.6 67.2 280.5 67.2 281.4z M59.3 273.6c-0.5-0.2-0.9-0.5-1.4-0.5c-0.2 1.3-0.1 6.4 0 7.4c0.4 0.2 0.7 0.5 1.4 0.5 C59.3 278.4 59.3 276 59.3 273.6z M65.5 283.4c0.2-1.7 0.1-6.7 0-7.6c-0.4-0.1-0.8-0.4-1.4-0.2c0 2.4 0 4.9 0 7.4 C64.6 283 65 283.2 65.5 283.4z M62.4 282.2c0.2-1.3 0.2-6.5 0-7.5c-0.4-0.2-0.8-0.4-1.3-0.4c-0.2 0.6-0.1 1.2-0.1 1.8 c0 0.6 0 1.2 0 1.9c0 0.6 0 1.2 0 1.9c0 0.6-0.1 1.2 0.2 1.9C61.5 282 61.9 282.1 62.4 282.2z M56.2 272 c-0.2-0.2-0.4-0.3-0.6-0.5c-0.2-0.1-0.4-0.3-0.8-0.5c-0.1 0.3-0.1 0.5-0.1 0.6c0 1.5 0 3 0 4.5c0 0.8 0.1 1.5 0.3 2.2 c0.1 0.6 0.6 0.8 1.2 0.9C56.2 276.8 56.2 274.4 56.2 272z M248.6 75.1c0 4.3 0 8.7 0 13c-1.7 2-3.5 3.9-5.2 5.9 c-0.8 0.9-1.3 1.9-1.8 3c-1 2.2-1.7 4.5-2.3 6.9c-1.4 5.6-2.8 11.2-4.3 16.8c-0.8 3.2-1.7 6.4-3 9.4c-2.7 6.3-6.5 11.7-11.9 16 c-3.8 3-8 5.2-12.6 6.8c-0.4 0.2-0.8 0.3-1.3 0.5c0 0.5 0 1 0 1.5c0 13.7 0 27.5 0 41.2c0 1.8-0.2 3.6-0.6 5.4 c-0.7 3.3-1.9 6.4-3.2 9.5c-1.9 4.5-4.2 8.8-6.6 13c-0.4 0.6-0.6 1.2-0.6 1.9c0 1.8-0.1 3.7 0.1 5.5c0.1 0.9 0.2 1.8 0.2 2.7 c0.7 0.3 1.4 0.5 2 0.8c1.9 0.9 3 2.3 3.3 4.4c0.2 1.1 0 2.2-0.3 3.3c-0.2 0.8-0.6 1.6-0.9 2.5c0 0.1 0.1 0.2 0.1 0.3 c1.4 2.7 1.6 5.5 1 8.4c-0.2 1.3-0.5 2.5-0.6 3.8c-0.3 2.2-0.9 4.4-1.8 6.5c-0.2 0.4-0.3 0.8-0.5 1.2c0.5 0.1 0.9 0.1 1.3 0.1 c0.1 0.4 0.2 0.7 0.3 1.1c0.8 3.1 1 6.3 0.7 9.4c-0.1 1.5-0.4 2.9-0.6 4.3c-0.1 0.7-0.4 1.2-1 1.5c-0.9 0.6-1.8 1.3-2.8 1.8 c-2.2 1.2-4.5 2.2-6.9 3c-6.9 2.4-14.1 3.9-21.3 5c-3.6 0.5-7.3 1-10.9 1.3c-4.3 0.4-8.6 0.8-13 1c-2.5 0.1-5 0.2-7.5 0.3 c-0.3 0-0.6 0.1-0.8 0.2c-6.8 0-13.7 0-20.5 0c-0.3-0.1-0.6-0.2-0.8-0.2c-4-0.2-8-0.3-12-0.6c-3.4-0.2-6.8-0.5-10.2-0.8 c-4.6-0.5-9.2-1.1-13.8-1.9c-5-0.9-9.9-2-14.7-3.5c-3.1-1-6.2-2.1-9-3.7c-1-0.5-1.9-1.2-2.8-1.8c-0.6-0.4-0.9-1-1-1.6 c-1-4.7-1-9.4 0.2-14.1c0.1-0.5 0.5-0.6 0.7-0.9c-0.1-0.4-0.2-0.8-0.3-1.1c-0.8-3-1.4-6.1-1.4-9.2c0-1-0.2-2.1-0.3-3.1 c-0.2-0.9-0.2-1.8 0-2.7c0.2-1.3 0.5-2.6 1.2-3.8c-0.2-0.5-0.4-1-0.6-1.5c-0.5-1.2-0.7-2.5-0.7-3.8c0.1-2.1 1-3.7 2.8-4.7 c0.5-0.3 1.1-0.5 1.7-0.8c0.3-0.1 0.5-0.2 0.8-0.3c0.1-0.4 0.1-0.7 0.2-1c0.1-2.4 0.4-4.8 0.1-7.2c-0.1-0.6-0.2-1.2-0.5-1.8 c-1.8-2.9-3.4-5.9-4.9-9c-1.7-3.4-3.2-6.9-4.3-10.5c-0.9-3-1.4-6.1-1.4-9.2c0-13.4 0-26.8 0-40.2c0-0.5 0-1 0-1.6 c-0.5-0.2-1-0.4-1.5-0.5c-3.3-1.1-6.6-2.5-9.6-4.3c-5.3-3.2-9.3-7.6-11.6-13.4c-4.2-10.6-7.8-21.3-10.3-32.4 c-0.8-3.4-2.3-6.4-4.6-9.1c-0.8-0.9-1.6-1.9-2.4-2.9c-1.5-1.9-2.7-4-3.1-6.5c0-0.3-0.2-0.5-0.5-0.7c0-3.8 0-7.7 0-11.5 c0.4 0.1 0.8-0.1 1.2-0.2c1.2-0.4 2.4-0.8 3.6-1.1c8.9-1.9 17.8-3.8 26.7-5.7c3.8-0.8 7.5-1.6 11.4-1.9c0.2 0 0.4-0.1 0.7-0.2 c0-0.5 0-0.9 0-1.4c0-2.5-0.1-5 0.2-7.5c0.5-3.6 1.1-7.2 2.1-10.8c0.9-3.1 2.1-6.1 3.8-8.8c0.5-0.8 0.9-1.6 1.4-2.4 c0.6-1.1 1.2-2.2 1.7-3.3c2.2-4.4 4.4-8.8 6.5-13.2c0.5-1 0.9-2 0.9-3.1c0.2-0.2 0.4-0.3 0.5-0.4c2-1.3 4.1-2.3 6.2-3.2 c6.7-2.8 13.7-4.6 20.9-6c3.3-0.7 6.7-1.2 10.1-1.6c2.9-0.3 5.8-0.7 8.7-0.9c3.5-0.3 6.9-0.4 10.4-0.6c0.4 0 0.8 0.1 1.2-0.2 c4.4 0 8.8 0 13.3 0c0.4 0.1 0.7 0.2 1.1 0.2c2 0.1 3.9 0.2 5.9 0.3c3.5 0.2 7 0.5 10.5 0.9c4.4 0.4 8.7 1.1 13 1.9 c5.3 1 10.6 2.3 15.7 4.1c3.2 1.1 6.4 2.4 9.4 4c0.9 0.5 1.8 1 2.5 1.6c0.1 0.5 0.1 1 0.2 1.4c0.1 0.4 0.3 0.9 0.5 1.3 c0.3 0.7 0.6 1.4 1 2.2c2.6 5.2 5.3 10.5 7.9 15.8c0.1 0.3 0.3 0.6 0.5 0.9c1.3 1.9 2.2 4 3 6.2c2.2 6.1 3.3 12.4 3.4 18.9 c0 1.1 0 2.2 0 3.4c0 0.3 0.1 0.5 0.1 0.9c1.9 0.2 3.8 0.5 5.6 0.7c2.8 0.4 5.7 0.8 8.5 1.4c4.2 1 8.4 2 12.6 3 c3.5 0.9 7 1.8 10.6 2.6C245.8 72.2 247.6 73 248.6 75.1z M231.2 94.7c0-0.3-0.1-0.6-0.1-1c-0.4 0-0.7 0-1.1 0 c-1.9 0.2-3.7 0.4-5.6 0.6c-2.9 0.3-5.9 0.6-8.8 0.9c-2.9 0.3-5.7 0.5-8.6 0.8c-0.2 0-0.5 0.1-0.8 0.2c0 16.6 0 33.2 0 49.9 c0.3 0 0.3 0 0.4 0c0.2 0 0.4-0.1 0.6-0.2c2.2-0.8 4.4-1.8 6.4-3.1c4.6-3.1 7.9-7.2 10-12.3c2.6-6.4 4.6-13 5.9-19.7 c0.7-3.5 1.2-7.1 1.4-10.6C231.1 98.3 231.1 96.5 231.2 94.7z M226.2 80.3c-0.1-0.5-0.6-0.8-0.9-1c-1.7-1.3-3.5-2.3-5.5-3.1 c-4.1-1.6-8.4-2.5-12.7-3.1c-0.2 0-0.5-0.1-0.7 0.1c0 0.1 0 0.3 0 0.4c0 4.5 0 9 0 13.5c0 0.2 0.1 0.4 0.1 0.6 C213.1 85.3 219.6 82.8 226.2 80.3z M200.6 202.2c0.6-2.1 0.9-4.2 0.9-6.4c0-13.1 0-26.1 0-39.2c0-0.3 0-0.7 0-1 c0-0.2-0.1-0.5-0.1-0.7c-0.2 0-0.2 0-0.3 0c-0.4 0.1-0.7 0.1-1.1 0.2c-3 0.6-6 0.9-9.1 0.9c-4.4 0-8.7-0.4-12.9-1.3 c-4.9-1-9.6-2.6-14-4.9c-6.9-3.7-12.4-8.9-16.6-15.6c-2.3-3.7-4.2-7.6-5.9-11.6c-2-4.7-3.5-9.5-5-14.4c-0.8-2.6-1.8-5.1-3-7.5 c-0.4-0.8-1-1.6-1.6-2.2c-0.9-1-2-1.6-3.4-1.8c-2.2-0.3-4.3-0.3-6.5-0.2c-1.5 0.1-2.7 0.9-3.3 2.3c-1 2.1-1.9 4.2-2.5 6.4 c-0.8 3.2-1.7 6.4-2.8 9.5c-2.6 8.1-6.3 15.6-11.4 22.4c-2.7 3.7-5.8 7-9.3 9.9c-5.8 4.7-12.4 7.5-19.8 8.4 c-2.1 0.3-4.2 0.4-6.4 0.6c-5.8 0.4-11.5 0.1-17.2-1c-0.2 0-0.5 0-0.8-0.1c0 0.4-0.1 0.8-0.1 1.2c0 13.6 0 27.1 0 40.7 c0 0.9 0.1 1.8 0.3 2.7c0.3 1.8 0.8 3.5 1.4 5.2c1.3 3.8 3 7.5 4.9 11.1c1.2 2.3 2.4 4.5 3.8 6.6c0.3 0.4 0.4 0.9 0.5 1.4 c0.4 1.8 0.4 3.6 0.3 5.3c0 2.4-0.3 4.8-0.5 7.1c-0.1 0.7-0.1 1.5-0.2 2.3c-0.7 0.2-1.3 0.2-2 0.2c-0.8 0-1.5 0.1-2.2 0.4 c-0.7 0.3-0.9 0.6-0.8 1.4c0 0.5 0.2 1 0.3 1.5c0.4 1.2 1.1 2.3 1.9 3.4c1.8 2.5 1.8 2.5 4.6 3.6c0.3 0.1 0.5 0.2 0.8 0.3 c3.3 1.2 6.8 2.1 10.2 2.8c5.8 1.2 11.8 1.9 17.7 2.4c5.1 0.4 10.2 0.8 15.3 1c5.4 0.2 10.8 0.3 16.3 0.4 c9.1 0.1 18.2 0 27.3-0.5c4.2-0.2 8.5-0.5 12.7-0.9c5-0.4 10-1.1 15-1.9c3.6-0.6 7.1-1.4 10.6-2.5c1.5-0.5 3-1.1 4.6-1.8 c0.5-0.2 0.8-0.5 1.1-0.9c0.7-1 1.4-1.9 2-2.8c0.6-0.8 1.1-1.7 1.4-2.7c0.1-0.4 0.3-0.9 0.3-1.3c0.1-0.6-0.2-1-0.8-1.3 c-0.2-0.1-0.5-0.2-0.7-0.2c-0.7-0.1-1.3-0.2-2-0.2c-0.5-0.1-1.1 0-1.6-0.3c0-0.4-0.1-0.8-0.1-1.2c-0.1-1.7-0.2-3.4-0.4-5.1 c-0.2-2.4-0.2-4.8-0.1-7.1c0.1-1.1 0.3-2.2 1.1-3.1c0.3-0.3 0.4-0.7 0.6-1.1c1.9-3.3 3.6-6.7 5.2-10.1 C198.7 208 199.8 205.1 200.6 202.2z M201.5 62.7c0-1.8 0.1-3.5 0-5.3c-0.3-4-0.9-7.9-2-11.8c-0.7-2.7-1.7-5.3-3.1-7.7 c-0.7-1.2-1.4-2.4-2-3.6c-1-1.9-2-3.8-2.9-5.7c-2-4-4-7.9-5.7-12c-0.2-0.5-0.5-0.8-1-1c-1.7-0.8-3.4-1.6-5.1-2.3 c-6.6-2.6-13.4-4.2-20.4-5.5c-6.2-1.1-12.4-1.8-18.6-2.2C135.5 5.2 130.4 5 125.4 5c-4.5 0-9 0.1-13.5 0.4 c-3.5 0.2-7.1 0.5-10.6 0.9c-3.8 0.4-7.6 1-11.4 1.7c-5.5 1-10.8 2.3-16.1 4.1c-2.8 1-5.6 2.1-8.3 3.5c-0.6 0.3-0.9 0.7-1.1 1.2 c-0.5 1.3-1.1 2.5-1.7 3.8c-2.5 5.3-5.2 10.5-7.9 15.6c-0.2 0.3-0.3 0.6-0.5 0.9c-1.2 1.7-2 3.6-2.7 5.6c-1 2.8-1.7 5.6-2.2 8.5 c-0.3 2-0.6 4-0.8 6.1c-0.1 1.8-0.1 3.7-0.1 5.5c0 0.2 0.1 0.3 0.1 0.5c1.5 0 3 0 4.5 0c1 0 2.1 0 3.1 0.2 c0.4 0.1 0.9 0.1 1.4 0.1c1.7 0.1 3.4 0.2 5.1 0.3c4.8 0.4 9.5 0.9 14.3 1.6c5.9 0.9 11.8 2 17.7 3.5c4.4 1.1 8.7 2.2 13.2 3 c4.4 0.7 8.8 1.2 13.3 1.4c4.1 0.1 8.3 0.1 12.4-0.2c3.3-0.3 6.7-0.6 9.9-1.2c2.8-0.5 5.5-1 8.2-1.6c6.1-1.2 12.1-2.4 18.2-3.6 c4-0.8 7.9-1.5 11.9-2.2c2.2-0.4 4.4-0.6 6.6-0.9c2.8-0.3 5.6-0.6 8.5-0.5c1.2 0 2.4 0 3.6 0c0.3 0 0.6-0.1 1-0.1 C201.4 62.9 201.5 62.8 201.5 62.7z M201.4 147.2c0.1-1.4 0.1-73.8 0-74.9c-0.7-0.1-1.3-0.2-1.9-0.2c-2.2-0.2-4.3-0.5-6.5-0.6 c-3.7-0.3-7.3-0.4-11-0.3c-4.6 0.2-9.2 0.6-13.6 1.6c-5.3 1.2-10.4 2.9-15.2 5.5c-2 1.1-3.9 2.2-5.7 3.7c-2.5 2-4.3 4.4-5.2 7.5 c-0.7 2.2-0.9 4.5-0.7 6.8c0.2 3.1 0.7 6.1 1.6 9.1c2.1 7.2 5 14.2 8.4 20.8c2.8 5.4 6.6 9.9 11.4 13.6c4.1 3.2 8.6 5.5 13.5 6.9 c5.1 1.5 10.2 2.3 15.6 1.7c2.9-0.3 5.8-0.7 8.7-1C200.9 147.4 201.2 147.3 201.4 147.2z M196.1 253.4c0.2-0.7 0.3-1.4 0.2-2.2 c-0.3 0.1-0.5 0.2-0.7 0.3c-1.3 0.8-2.7 1.5-4.2 2c-2.4 1-4.9 1.7-7.4 2.3c-5.7 1.4-11.5 2.3-17.4 3c-4.9 0.6-9.9 1-14.8 1.2 c-4 0.2-8 0.4-12 0.5c-8.1 0.2-16.1 0.2-24.2 0.1c-4.8-0.1-9.7-0.3-14.5-0.5c-3.2-0.1-6.5-0.3-9.7-0.6c-4.9-0.4-9.7-0.9-14.5-1.6 c-4.2-0.6-8.3-1.4-12.4-2.5c-3.5-1-6.8-2.1-9.9-4c-0.1 0-0.2 0-0.4 0c0.1 0.6 0.1 1.1 0.2 1.7c0.1 0.7 0.2 1.4 0.2 2.1 c0 3.8 0.9 7.4 2.1 10.9c0.2 0.5 0.5 1 1 1.3c0.8 0.5 1.6 1 2.5 1.5c1.9 0.9 3.8 1.6 5.8 2.2c4.8 1.4 9.7 2.3 14.6 3 c4.7 0.7 9.4 1.2 14.2 1.5c5.2 0.3 10.4 0.6 15.6 0.8c6.4 0.2 12.8 0.2 19.1 0.1c6.1-0.1 12.2-0.2 18.3-0.5 c4.5-0.2 8.9-0.6 13.4-1c4.4-0.4 8.8-1 13.1-1.8c3.4-0.6 6.8-1.4 10.1-2.5c1.9-0.6 3.7-1.4 5.4-2.3c1.3-0.7 2.4-1.7 3.1-3.2 c0.1-0.3 0.3-0.5 0.4-0.8c0.8-1.7 1.6-3.4 2-5.3c0.1-0.6 0.2-1.2 0.3-1.8C195.6 255.8 195.8 254.6 196.1 253.4z M108.9 100.7 c0.4-2.4 0.7-4.8 0.6-7.2c-0.2-4-1.8-7.5-4.6-10.4c-1.6-1.7-3.5-3-5.6-4.1c-7-3.8-14.5-6-22.3-7.1c-2.6-0.3-5.1-0.6-7.7-0.6 c-1.9-0.1-3.8-0.1-5.6 0c-2 0.1-3.9 0.2-5.9 0.4c-2.4 0.2-4.8 0.4-7.2 0.7c-0.6 0.1-1.2 0.1-2 0.2c0 0.7 0 1.2 0 1.8 c0 23.7 0 47.3 0 71c0 0.3 0 0.6 0 0.9c0 0.3 0.1 0.6 0.1 0.9c0.5 0.1 0.9 0.2 1.3 0.3c2 0.3 4 0.6 6.1 0.8 c4.8 0.5 9.6 0.5 14.3-0.3c5.1-0.8 9.8-2.5 14.2-5.2c4.6-2.8 8.3-6.5 11.4-10.9c2.5-3.5 4.6-7.2 6.4-11 C105.4 114.3 107.6 107.6 108.9 100.7z M43.8 145.7c0-0.6 0-1.1 0-1.6c0-15.4 0-30.9 0-46.3c0-0.2 0-0.5 0-0.8 c0-0.3-0.1-0.6-0.1-0.9c-7.8-1-15.6-1.9-23.4-2.9c-0.1 0-0.2 0-0.4 0.1c0 0.3-0.1 0.7-0.1 1c0 1.6 0.1 3.2 0.1 4.9 c0.2 3.8 0.7 7.5 1.4 11.3c1.2 6.4 3.1 12.7 5.4 18.8c0.8 2.1 1.8 4.1 3 5.9c3.1 4.7 7.2 8.2 12.5 10.1 C42.7 145.5 43.1 145.7 43.8 145.7z M43.8 87.4c0-4.5 0-9 0-13.5c0-0.2-0.1-0.5-0.1-0.7c-0.3 0-0.5 0-0.8 0 c-0.8 0.1-1.6 0.3-2.5 0.4c-3.2 0.6-6.4 1.5-9.5 2.7c-1.9 0.8-3.7 1.7-5.3 3c-0.3 0.3-0.6 0.5-1 0.9c0.5 0.2 0.8 0.4 1.2 0.6 c2 0.8 3.9 1.6 5.9 2.4c3.6 1.5 7.2 3 10.9 4.5c0.4 0.1 0.7 0.5 1.2 0.2C43.7 87.8 43.8 87.6 43.8 87.4z" class="style1"/><path d="M54.4 253c-0.1-0.5-0.1-1.1-0.2-1.7c0.2 0 0.3 0 0.4 0c3.1 1.9 6.5 3.1 9.9 4c4.1 1.1 8.2 1.9 12.4 2.5 c4.8 0.7 9.7 1.2 14.5 1.6c3.2 0.3 6.5 0.5 9.7 0.6c4.8 0.2 9.7 0.4 14.5 0.5c8.1 0.1 16.1 0.1 24.2-0.1c4-0.1 8-0.3 12-0.5 c5-0.3 9.9-0.6 14.8-1.2c5.8-0.7 11.7-1.5 17.4-3c2.5-0.6 5-1.4 7.4-2.3c1.4-0.6 2.8-1.2 4.2-2c0.2-0.1 0.4-0.2 0.7-0.3 c0.1 0.8 0 1.5-0.2 2.2c-0.4 1.2-0.5 2.4-0.6 3.7c-0.1 0.6-0.2 1.2-0.3 1.8l-2-0.4c-2.5 1.5-4 2.2-6.6 3 c-1.2 0.4-2.4 0.8-3.6 1.1c-6 1.6-12.1 2.7-18.3 3.5c-4.8 0.6-9.6 1.1-14.4 1.6c-4.7 0.5-9.5 0.8-14.2 1.1 c-5.5 0.4-11 0.6-16.5 0.9c-2.3 0.1-4.7 0.2-7 0.3c-7 0.3-14.1 0.4-21.1 0.3c-5.3-0.1-10.7-0.3-16-0.9c-2.4-0.3-4.7-0.6-7-1.2 c-1.2-0.3-2.3-0.7-3.5-1c0 0 0 0 0-0.1l0 0c0 0 0 0 0.1 0c0.1 0.1 0.1 0.3 0.2 0.3c0.5 0.3 1 0.5 1.6 0.8c2 0.8 4 1.4 6.1 1.9 c5 1.2 10 1.8 15.1 2.2c2.3 0.2 4.7 0.4 7 0.5l-0.1 2.5c-4.7-0.3-9.5-0.8-14.2-1.5c-4.9-0.7-9.8-1.6-14.6-3c-2-0.6-4-1.3-5.8-2.2 c-0.9-0.4-1.7-1-2.5-1.5c-0.5-0.3-0.8-0.7-1-1.3c-1.3-3.5-2.1-7.1-2.1-10.9C54.6 254.4 54.5 253.7 54.4 253z" class="style0"/></g><g></g></g></g></svg>