<?xml version="1.0" encoding="utf-8"?>
<!-- Generator: Adobe Illustrator 18.0.0, SVG Export Plug-In . SVG Version: 6.00 Build 0)  -->
<!DOCTYPE svg PUBLIC "-//W3C//DTD SVG 1.1//EN" "http://www.w3.org/Graphics/SVG/1.1/DTD/svg11.dtd">
<svg version="1.1" id="Layer_1" xmlns="http://www.w3.org/2000/svg" xmlns:xlink="http://www.w3.org/1999/xlink" x="0px" y="0px"
	 viewBox="0 0 515.9 645.8" enable-background="new 0 0 515.9 645.8" xml:space="preserve">
<g>
	<g id="XMLID_3_">
		<g>
		</g>
		<g>
			<path fill="none" stroke="#000000" stroke-width="7.8973" stroke-miterlimit="10" d="M380.7,414.7c-0.4-0.5-1-0.8-1.6-0.7
				c0,0,11-15.2-5.3-16c0,0-1.1-14.5-0.9-13.6c0.2,0.8-0.2-7.7,0.9-7.9c0,0,17.8-29.2,17.8-45.2s0-234.3,0-234.3
				s-1.1-24.1-10.5-37.7c0,0-17.1-32.7-17.1-35.5c0,0-29-19.5-104.3-19.7"/>
			<path fill="none" stroke="#000000" stroke-width="7.8973" stroke-miterlimit="10" d="M375.8,448.8c2.1-3.6,5.7-11,5.8-18.8
				c0,0,1.7-4.5,1.2-8.2c0,0-0.3-5.2-2.2-7.1"/>
			<path fill="none" stroke="#000000" stroke-width="7.8973" stroke-miterlimit="10" d="M374.5,451c0.1-0.2,0.6-0.9,1.3-2.2"/>
			<path fill="none" stroke="#000000" stroke-width="7.8973" stroke-miterlimit="10" d="M259.9,492.1c9.5,0,18.3-0.2,26.4-0.6
				c14.3-0.6,26.5-1.7,37-3.1c5.9-0.8,11.2-1.6,15.9-2.5c3.7-0.7,7.1-1.4,10.2-2.2c2-0.4,3.8-0.9,5.6-1.4
				c19.6-5.3,25.5-10.8,25.5-10.8s2.5-10,0.1-20.5h-6.1h0"/>
			<path fill="none" stroke="#000000" stroke-width="7.8973" stroke-miterlimit="10" d="M140.6,450.9c-0.5-1.2-4.5-10.7-4.6-20.9
				c0,0,0.2-2.5-0.9-7.9c0,0,0.1-6.1,2.2-7.7c0.3-0.3,0.8-0.4,1.2-0.4c0,0-11-15.2,5.3-16c0,0,1.1-14.5,0.9-13.6
				c-0.2,0.8,0-7.7-1.1-7.9c0,0-18-29.2-18-45.2s0-234.3,0-234.3s1.3-24.1,10.7-37.7c0,0,17.2-32.7,17.2-35.5
				c0,0,29.1-19.5,104.3-19.7c0.6,0,1.2,0,1.7,0"/>
			<path fill="none" stroke="#000000" stroke-width="7.8973" stroke-miterlimit="10" d="M259.9,492.1c-0.8,0-1.5,0-2.3,0
				c-10.7,0-20.5-0.3-29.4-0.7c-12-0.6-22.6-1.5-31.7-2.7c-1.8-0.2-3.5-0.4-5.2-0.7c-5.9-0.8-11.1-1.7-15.9-2.7
				c-3.7-0.7-7.2-1.5-10.2-2.3c-7-1.8-12.4-3.6-16.5-5.2c-1.8-0.7-3.3-1.4-4.6-2c-2.5-1.2-4.2-2.2-5.3-2.9c-1.2-0.8-1.7-1.3-1.7-1.3
				s-2.6-10-0.1-20.5h3.6"/>
			<path fill="none" stroke="#000000" stroke-width="7.8973" stroke-miterlimit="10" d="M139.3,448.8c0,0,0.1,0.8,1.3,2.1
				c0,0,0.1,0.1,0.1,0.1c1.4,1.5,4,3.6,9.1,5.8c5.4,2.3,13.7,4.9,26.3,7c4.6,0.8,9.8,1.6,15.7,2.2c1.7,0.2,3.4,0.4,5.2,0.6
				c9,0.9,19.5,1.6,31.5,2c8.8,0.3,18.6,0.5,29.2,0.5c10.4,0,19.9-0.2,28.5-0.5c14.5-0.5,26.6-1.4,36.7-2.5
				c5.9-0.6,11.1-1.3,15.7-2.1c6.1-1,11.2-2.1,15.5-3.3v0c13.1-3.5,18.3-7.3,20.3-9.6c1-1.1,1.3-1.9,1.3-2.2c0,0,0-0.1,0-0.1"/>
			<path fill="none" stroke="#000000" stroke-width="7.8973" stroke-miterlimit="10" d="M380.7,414.7L380.7,414.7
				C380.7,414.6,380.7,414.6,380.7,414.7"/>
			<path fill="none" stroke="#000000" stroke-width="8.0071" stroke-miterlimit="10" d="M137.6,414.6c0,0,3.4,20.2,121.7,20.2
				c113.8,0,121-18.7,121.4-20.1"/>
			<line fill="none" stroke="#000000" stroke-width="2.6324" stroke-miterlimit="10" x1="254.7" y1="470.7" x2="254.7" y2="489.2"/>
			<line fill="none" stroke="#000000" stroke-width="2.6324" stroke-miterlimit="10" x1="259.9" y1="470.7" x2="259.9" y2="489.2"/>
			<line fill="none" stroke="#000000" stroke-width="2.6324" stroke-miterlimit="10" x1="265.2" y1="470.7" x2="265.2" y2="489.2"/>
			<line fill="none" stroke="#000000" stroke-width="2.6324" stroke-miterlimit="10" x1="270.5" y1="470.7" x2="270.5" y2="489.2"/>
			<line fill="none" stroke="#000000" stroke-width="2.6324" stroke-miterlimit="10" x1="275.7" y1="470.7" x2="275.7" y2="489.2"/>
			<line fill="none" stroke="#000000" stroke-width="2.6324" stroke-miterlimit="10" x1="281" y1="470.7" x2="281" y2="489.2"/>
			<line fill="none" stroke="#000000" stroke-width="2.6324" stroke-miterlimit="10" x1="286.3" y1="470.7" x2="286.3" y2="489.2"/>
			<line fill="none" stroke="#000000" stroke-width="2.6324" stroke-miterlimit="10" x1="291.5" y1="470.7" x2="291.5" y2="489.2"/>
			<line fill="none" stroke="#000000" stroke-width="2.6324" stroke-miterlimit="10" x1="296.8" y1="470.7" x2="296.8" y2="489.2"/>
			<line fill="none" stroke="#000000" stroke-width="2.6324" stroke-miterlimit="10" x1="302.1" y1="468.1" x2="302.1" y2="486.5"/>
			<line fill="none" stroke="#000000" stroke-width="2.6324" stroke-miterlimit="10" x1="307.3" y1="468.1" x2="307.3" y2="486.5"/>
			<line fill="none" stroke="#000000" stroke-width="2.6324" stroke-miterlimit="10" x1="312.6" y1="468.1" x2="312.6" y2="486.5"/>
			<line fill="none" stroke="#000000" stroke-width="2.6324" stroke-miterlimit="10" x1="317.9" y1="468.1" x2="317.9" y2="486.5"/>
			<line fill="none" stroke="#000000" stroke-width="2.6324" stroke-miterlimit="10" x1="323.1" y1="468.1" x2="323.1" y2="486.5"/>
			<line fill="none" stroke="#000000" stroke-width="2.6324" stroke-miterlimit="10" x1="328.4" y1="468.1" x2="328.4" y2="486.5"/>
			<line fill="none" stroke="#000000" stroke-width="2.6324" stroke-miterlimit="10" x1="333.6" y1="465.5" x2="333.6" y2="483.9"/>
			<line fill="none" stroke="#000000" stroke-width="2.6324" stroke-miterlimit="10" x1="338.9" y1="465.5" x2="338.9" y2="483.9"/>
			<line fill="none" stroke="#000000" stroke-width="2.6324" stroke-miterlimit="10" x1="344.2" y1="465.5" x2="344.2" y2="483.9"/>
			<polyline fill="none" stroke="#000000" stroke-width="2.6324" stroke-miterlimit="10" points="349.4,465.5 349.4,483.7 
				349.4,483.9 			"/>
			<line fill="none" stroke="#000000" stroke-width="2.6324" stroke-miterlimit="10" x1="354.7" y1="462.8" x2="354.7" y2="481.3"/>
			<line fill="none" stroke="#000000" stroke-width="2.6324" stroke-miterlimit="10" x1="360" y1="460.2" x2="360" y2="478.7"/>
			<line fill="none" stroke="#000000" stroke-width="2.6324" stroke-miterlimit="10" x1="365.2" y1="457.6" x2="365.2" y2="476"/>
			<line fill="none" stroke="#000000" stroke-width="2.6324" stroke-miterlimit="10" x1="370.5" y1="457.6" x2="370.5" y2="476"/>
			<line fill="none" stroke="#000000" stroke-width="2.6324" stroke-miterlimit="10" x1="375.8" y1="455" x2="375.8" y2="473.4"/>
			<line fill="none" stroke="#000000" stroke-width="2.6324" stroke-miterlimit="10" x1="249.4" y1="470.7" x2="249.4" y2="489.2"/>
			<line fill="none" stroke="#000000" stroke-width="2.6324" stroke-miterlimit="10" x1="244.1" y1="470.7" x2="244.1" y2="489.2"/>
			<line fill="none" stroke="#000000" stroke-width="2.6324" stroke-miterlimit="10" x1="238.9" y1="470.7" x2="238.9" y2="489.2"/>
			<line fill="none" stroke="#000000" stroke-width="2.6324" stroke-miterlimit="10" x1="233.6" y1="470.7" x2="233.6" y2="489.2"/>
			<line fill="none" stroke="#000000" stroke-width="2.6324" stroke-miterlimit="10" x1="228.3" y1="470.7" x2="228.3" y2="489.2"/>
			<line fill="none" stroke="#000000" stroke-width="2.6324" stroke-miterlimit="10" x1="223.1" y1="470.7" x2="223.1" y2="489.2"/>
			<line fill="none" stroke="#000000" stroke-width="2.6324" stroke-miterlimit="10" x1="217.8" y1="470.7" x2="217.8" y2="489.2"/>
			<line fill="none" stroke="#000000" stroke-width="2.6324" stroke-miterlimit="10" x1="212.6" y1="468.1" x2="212.6" y2="486.5"/>
			<line fill="none" stroke="#000000" stroke-width="2.6324" stroke-miterlimit="10" x1="207.3" y1="468.1" x2="207.3" y2="486.5"/>
			<line fill="none" stroke="#000000" stroke-width="2.6324" stroke-miterlimit="10" x1="202" y1="468.1" x2="202" y2="486.5"/>
			<line fill="none" stroke="#000000" stroke-width="2.6324" stroke-miterlimit="10" x1="196.8" y1="468.1" x2="196.8" y2="486.5"/>
			<line fill="none" stroke="#000000" stroke-width="2.6324" stroke-miterlimit="10" x1="191.5" y1="468.1" x2="191.5" y2="486.5"/>
			<line fill="none" stroke="#000000" stroke-width="2.6324" stroke-miterlimit="10" x1="186.2" y1="468.1" x2="186.2" y2="486.5"/>
			<line fill="none" stroke="#000000" stroke-width="2.6324" stroke-miterlimit="10" x1="181" y1="465.5" x2="181" y2="483.9"/>
			<line fill="none" stroke="#000000" stroke-width="2.6324" stroke-miterlimit="10" x1="175.7" y1="465.5" x2="175.7" y2="483.9"/>
			<line fill="none" stroke="#000000" stroke-width="2.6324" stroke-miterlimit="10" x1="170.4" y1="465.5" x2="170.4" y2="483.9"/>
			<polyline fill="none" stroke="#000000" stroke-width="2.6324" stroke-miterlimit="10" points="165.2,465.5 165.2,483 
				165.2,483.9 			"/>
			<line fill="none" stroke="#000000" stroke-width="2.6324" stroke-miterlimit="10" x1="159.9" y1="462.8" x2="159.9" y2="481.3"/>
			<line fill="none" stroke="#000000" stroke-width="2.6324" stroke-miterlimit="10" x1="154.6" y1="460.2" x2="154.6" y2="478.7"/>
			<line fill="none" stroke="#000000" stroke-width="2.6324" stroke-miterlimit="10" x1="149.4" y1="457.6" x2="149.4" y2="476"/>
			<polyline fill="none" stroke="#000000" stroke-width="2.6324" stroke-miterlimit="10" points="144.1,457.6 144.1,475.8 
				144.1,476 			"/>
			<line fill="none" stroke="#000000" stroke-width="7.8973" stroke-miterlimit="10" x1="138.8" y1="472.8" x2="138.8" y2="473.4"/>
			<line fill="none" stroke="#000000" stroke-width="2.6324" stroke-miterlimit="10" x1="138.8" y1="455" x2="138.8" y2="472.8"/>
		</g>
	</g>
	<g>
		<path d="M154,447.6c0,0,0.1,0.2,0.5,0.5c0.3,0.3,0.8,0.6,1.6,1c1.5,0.8,3.7,1.6,6.7,2.3c3,0.7,6.7,1.4,10.9,1.9
			c4.3,0.5,9.1,0.9,14.4,1.2c5.3,0.3,11,0.4,17.1,0.5c6.1,0.1,12.5-0.1,19.1-0.1c6.6-0.1,13.5-0.4,20.4-0.7c6.9-0.3,14-0.6,21.1-1
			c7.1-0.4,14.1-0.8,21.1-1.3c6.9-0.5,13.8-1.1,20.3-1.7c6.6-0.7,12.9-1.4,18.9-2.2c6-0.9,11.7-1.8,16.8-2.8c5.2-1,9.9-2.1,14-3.3
			c4.1-1.2,7.7-2.4,10.5-3.6c2.8-1.3,4.9-2.5,6.2-3.5c1.3-1,1.7-1.8,1.7-1.8s-0.1,0.2-0.3,0.6c-0.2,0.4-0.6,0.9-1.2,1.5
			c-1.2,1.2-3.2,2.7-5.9,4.3c-5.5,3.1-13.9,6.3-24.3,9c-5.2,1.3-10.9,2.6-16.9,3.7c-6,1.1-12.4,2.1-19,3c-3.3,0.4-6.7,0.8-10.1,1.2
			c-1.7,0.2-3.4,0.4-5.2,0.6c-1.7,0.2-3.5,0.3-5.2,0.5c-7,0.6-14.1,1.1-21.2,1.5c-7.1,0.4-14.2,0.7-21.2,0.9
			c-3.5,0.1-7,0.2-10.4,0.2c-3.4,0-6.8,0-10.2,0c-6.7,0-13.1-0.2-19.2-0.6c-6.1-0.3-11.9-0.8-17.2-1.4c-10.6-1.2-19.4-3.1-25.3-5.2
			c-3-1-5.2-2.2-6.6-3.1c-0.7-0.5-1.2-0.9-1.5-1.2C154.2,447.8,154,447.6,154,447.6z"/>
	</g>
	<g>
		<path d="M152.2,404.6c0,0,0.1,0.2,0.4,0.5c0.1,0.2,0.3,0.3,0.6,0.5c0.2,0.2,0.5,0.4,0.9,0.6c0.6,0.4,1.5,0.9,2.6,1.3
			c0.5,0.3,1.1,0.4,1.7,0.7c0.6,0.2,1.2,0.5,1.9,0.7c1.4,0.4,2.9,0.9,4.7,1.3c0.9,0.2,1.8,0.4,2.7,0.6c0.9,0.2,1.9,0.4,2.9,0.6
			c1,0.2,2,0.4,3.1,0.6c1.1,0.2,2.2,0.3,3.3,0.5c1.1,0.2,2.3,0.3,3.5,0.5c1.2,0.2,2.4,0.3,3.7,0.4c5,0.6,10.4,1,16.2,1.5
			c2.9,0.2,5.8,0.3,8.9,0.5c3,0.2,6.1,0.2,9.3,0.4c6.3,0.3,12.8,0.3,19.4,0.5c3.3,0.1,6.6,0.1,10,0.1c3.3,0,6.7,0,10.1,0
			c3.4,0,6.7,0,10.1-0.1c3.4,0,6.7,0,10-0.1c3.3-0.1,6.6-0.2,9.8-0.3c3.2,0,6.4-0.3,9.6-0.4c3.1-0.1,6.2-0.3,9.3-0.5
			c3-0.2,6-0.4,8.9-0.6c2.9-0.3,5.7-0.6,8.3-0.9c2.7-0.3,5.3-0.7,7.8-1c0.6-0.1,1.2-0.2,1.8-0.2c0.6-0.1,1.2-0.2,1.8-0.3
			c1.2-0.2,2.3-0.4,3.5-0.6c2.3-0.3,4.4-0.9,6.4-1.3c0.5-0.1,1-0.2,1.5-0.3c0.5-0.1,0.9-0.3,1.4-0.4c0.9-0.3,1.8-0.5,2.6-0.8
			c0.9-0.2,1.6-0.5,2.4-0.8c0.8-0.3,1.5-0.5,2.2-0.8c2.7-1.2,4.8-2.2,6-3.2c0.3-0.2,0.6-0.5,0.8-0.7c0.2-0.2,0.4-0.4,0.5-0.5
			c0.3-0.3,0.4-0.5,0.4-0.5s-0.1,0.2-0.3,0.5c-0.1,0.2-0.3,0.4-0.5,0.6c-0.2,0.2-0.4,0.5-0.7,0.8c-1.1,1.2-3.1,2.5-5.7,3.9
			c-0.7,0.3-1.4,0.7-2.1,1c-0.8,0.3-1.5,0.8-2.4,1.1c-0.8,0.3-1.7,0.7-2.6,1c-0.5,0.2-0.9,0.3-1.4,0.5c-0.5,0.1-1,0.3-1.5,0.5
			c-3.9,1.3-8.5,2.5-13.5,3.6c-2.5,0.5-5.1,1.1-7.8,1.5c-2.7,0.4-5.5,0.8-8.4,1.3c-5.8,0.7-11.9,1.5-18.2,1.9
			c-6.3,0.5-12.9,0.9-19.6,1.1c-3.3,0.2-6.7,0.2-10,0.2c-3.4,0.1-6.7,0.1-10.1,0.2c-3.4,0-6.8-0.1-10.2-0.1
			c-3.4-0.1-6.7-0.1-10.1-0.2c-6.7-0.2-13.2-0.5-19.6-1c-1.6-0.1-3.2-0.2-4.7-0.3c-1.6-0.1-3.1-0.2-4.6-0.4c-3-0.3-6-0.6-8.9-0.9
			c-5.8-0.7-11.3-1.4-16.3-2.4c-2.5-0.4-4.9-0.9-7.2-1.4c-1.1-0.3-2.2-0.5-3.3-0.8c-1.1-0.3-2.1-0.6-3.1-0.8c-1-0.3-2-0.5-2.9-0.8
			c-0.9-0.3-1.8-0.6-2.7-0.9c-1.7-0.5-3.2-1.2-4.6-1.8c-2.7-1.2-4.8-2.4-6-3.5c-0.3-0.2-0.6-0.5-0.8-0.7c-0.2-0.2-0.4-0.4-0.5-0.6
			C152.3,404.8,152.2,404.6,152.2,404.6z"/>
	</g>
	<path d="M131.1,105.9c3.3,0,6.5,0,9.8,0c0.8,0.2,1.6,0.5,2.3,0.5c23.5,1.3,46.7,4.6,69.4,10.6c28.4,7.5,56.8,8.2,85.4,2.2
		c18.2-3.8,36.4-7.3,54.6-10.7c6.7-1.2,13.5-1.7,20.3-2.5c5.3,0,10.7,0,16,0c1,0.2,2,0.5,3.1,0.6c9.2,1.3,18.5,2.2,27.5,4.1
		c13.2,2.8,26.3,6.5,39.5,9.6c3.7,0.9,6.4,2.4,8,5.9c0,7.2,0,14.4,0,21.6c-1.7,2-3.4,3.9-5.1,5.9c-2,2.4-4.4,4.6-5.8,7.3
		c-1.9,3.8-3.3,7.9-4.4,12c-3.2,11.9-5.9,23.9-9.2,35.7c-5.6,20.1-17.2,35.6-36.2,44.9c-19.5,9.5-39.9,10.7-60.8,6
		c-22.2-5-39.3-17-50.9-36.8c-7.5-12.7-12.4-26.4-16.5-40.5c-1.4-4.7-3.2-9.5-5.6-13.8c-1.3-2.4-3.9-5-6.4-5.8
		c-3.7-1.1-7.8-0.8-11.7-0.8c-3.1,0-5.5,1.6-6.8,4.6c-1.3,3-2.8,5.9-3.6,9c-3.9,15.6-8.9,30.6-17.3,44.5
		c-13.6,22.4-31,38.9-58.5,41.6c-21.2,2.1-41.7,0.5-61.1-9.2c-11-5.5-19.1-13.5-23.7-25.2c-7-17.6-13-35.5-17.1-54
		c-1.3-5.7-3.8-10.7-7.6-15.1c-4.6-5.4-9.2-10.8-9.8-18.3c0-6,0-12.1,0-18.1c2.5-0.8,4.9-1.8,7.5-2.3c17.8-3.8,35.5-7.7,53.4-11.2
		C116.8,107,124,106.7,131.1,105.9z M368.1,250c5.9-0.7,11.8-1.2,17.6-2c18.8-2.7,32.9-12.4,39.8-30.2c7.8-19.9,12.4-40.6,12.1-62.1
		c-0.2-14.2-6.4-23-19.7-28.1c-11.1-4.2-22.7-5.4-34.4-6.8c-23-2.7-45.7-2.4-67.6,6.1c-6.8,2.7-13.7,6.1-19.4,10.6
		c-10.4,8.2-11.3,19.8-9.2,32c2.3,12.6,7.4,24.1,12.4,35.7C312.3,234,336.9,250,368.1,250z M156,119.3c-6.5,0.5-12.2,0.7-17.9,1.3
		c-12.8,1.3-25.6,2.5-37.8,7.2c-12.5,4.9-18.6,13.4-19,26.8c-0.6,21.8,4.1,42.7,11.8,62.9c5.7,14.8,16.4,25.1,32.2,28.7
		c8.9,2,18.1,3.3,27.2,3.3c24,0.1,44.1-9.1,57.8-29.2c11.1-16.2,18.3-34.4,21.5-53.9c2.7-16-3.2-27.1-17.4-34.5
		C195.9,122.2,175.9,118.9,156,119.3z"/>
	<polygon points="82.3,132 123.8,149.3 123.1,161.6 63.8,154.2 	"/>
	<polygon points="434.1,132.8 390.2,149.3 391.2,161.6 454.3,155.4 	"/>
</g>
<g>
	<path stroke="#000000" stroke-width="1.514" stroke-miterlimit="10" d="M313,601.1c-1.6,3-2.8,5.1-3.9,7.3
		c-5.7,10.9-11.4,21.9-17,32.8c-1,1.9-1.8,3.6-4.6,3.7c-3,0.1-3.8-1.8-4.9-3.8c-6.8-13.1-13.6-26.1-21.2-39.1
		c-0.6,4.3-1.3,8.7-1.9,13c-1.2,8.2-2.5,16.4-3.5,24.7c-0.4,3.3-1.9,4.2-5,4.1c-3.9-0.2-7.8,0-11.7-0.1c-3.9,0-4.7-0.9-4-4.8
		c2.3-13.9,4.7-27.8,7-41.7c2.4-14.3,4.8-28.6,7.2-42.8c0.3-1.9,0.2-4.1,3-4.5c2.7-0.3,4.1,1,5.3,3.2c8.8,16.6,17.7,33.1,26.6,49.6
		c0.8,1.5,1.7,3.1,2.9,5.3c0.9-1.5,1.6-2.6,2.2-3.7c9.1-17,18.2-34,27.4-50.9c0.7-1.3,1.7-2.7,2.9-3.3c2.9-1.3,4.8,0.1,5.4,3.6
		c2.6,15.3,5.1,30.5,7.7,45.8c2.2,12.9,4.3,25.8,6.5,38.7c0.8,4.7,0.2,5.5-4.4,5.5c-3.7,0-7.3-0.2-11,0.1c-3.5,0.3-5-1.2-5.4-4.6
		c-1.5-11.1-3.2-22.2-4.8-33.3C313.7,604.7,313.4,603.3,313,601.1z"/>
	<path stroke="#000000" stroke-width="1.514" stroke-miterlimit="10" d="M173.1,608c0,10.4,0,20.6,0,30.8c0,4.6-0.4,5-5,5
		c-4,0-8.1-0.1-12.1,0c-2.8,0.1-3.8-1.2-3.8-3.9c0-28.3,0-56.5,0-84.8c0-3,1.2-3.9,4.1-3.9c12.7,0.1,25.5,0,38.2,0.1
		c13.1,0.1,23.8,8.3,27.4,20.8c3.4,12-1.5,24.3-12.5,31.3c-1.7,1.1-3.5,2-5.6,3.1c2.3,4.3,4.5,8.5,6.8,12.6
		c3.4,6.3,6.9,12.6,10.2,19c2.1,4,1.1,5.6-3.3,5.6c-4.7,0-9.3-0.1-14,0.1c-2.5,0.1-3.8-0.9-4.9-3.1c-4.4-9.1-9-18-13.5-27
		C181.5,606.7,181.5,606.7,173.1,608z M173.3,590.7c6.8,0,13.3,0.2,19.7-0.1c4.8-0.2,9.1-5,9.5-9.8c0.3-4.3-3.1-9.7-7.5-10.1
		c-7.2-0.6-14.5-0.2-21.7-0.2C173.3,577.4,173.3,583.8,173.3,590.7z"/>
	<path stroke="#000000" stroke-width="1.514" stroke-miterlimit="10" d="M430.5,582.9c0,8.3,0,16.7,0,25c0,20.8-16.3,36.8-37.8,37
		c-20.7,0.2-37.2-15.9-37.3-36.6c-0.1-17.5,0.1-35.1-0.1-52.6c0-3.5,1.2-4.7,4.6-4.5c4.1,0.3,8.3,0.2,12.5,0
		c3.4-0.2,4.4,1.3,4.4,4.5c-0.1,16.9,0,33.8,0,50.7c0,10,6.9,17.3,16.1,17.3c9.1,0,16.3-7.5,16.4-17.2c0.1-16.9,0.1-33.8,0-50.7
		c0-3.5,1-4.8,4.5-4.6c4.3,0.3,8.6,0.2,12.9,0c3-0.1,4,1.1,4,4C430.4,564.5,430.5,573.7,430.5,582.9z"/>
	<path stroke="#000000" stroke-width="1.514" stroke-miterlimit="10" d="M95.9,570.8c0,5.6,0,10.6,0,16.2c2.7,0,5.3,0,7.9,0
		c6.8,0,13.6,0.1,20.4,0c2.9-0.1,4.2,1,4.1,4c-0.1,3.9-0.1,7.8,0,11.7c0.1,2.9-1.2,4.1-4.1,4c-7.9-0.1-15.9,0-23.8,0
		c-1.4,0-2.7,0-4.4,0c0,5.8,0,11.4,0,17.5c1.4,0,2.8,0,4.1,0c10.2,0,20.4,0,30.6,0c2.7,0,4,0.8,3.9,3.7c-0.2,4.2-0.1,8.3,0,12.5
		c0.1,2.6-1.1,3.6-3.6,3.6c-17.4,0-34.8,0-52.2,0c-2.8,0-3.8-1.3-3.8-3.9c0-28.2,0-56.5,0-84.7c0-2.7,0.9-3.9,3.8-3.8
		c17.4,0.1,34.8,0.1,52.2,0c2.9,0,3.8,1.1,3.7,3.8c-0.1,3.9-0.2,7.8,0,11.7c0.1,3-1.1,4-4,4c-10-0.1-19.9,0-29.9,0
		C99.2,570.8,97.8,570.8,95.9,570.8z"/>
	<path stroke="#000000" stroke-width="1.514" stroke-miterlimit="10" d="M472,610.2c0,9.8,0,19.1,0,28.4c0,4.8-0.4,5.2-5.1,5.2
		c-3.8,0-7.6-0.1-11.3,0c-3.1,0.1-4.4-1.1-4.3-4.2c0.1-5.4,0-10.8,0-16.3c0-22.3,0-44.6,0-66.9c0-4.9,0.2-5.1,5.1-5.1
		c9.7,0,19.4,0,29.1,0c16.8,0.1,29.7,12.8,29.7,29.2c0,16.7-12.9,29.5-29.7,29.7C481.1,610.2,476.8,610.2,472,610.2z M472.2,590.6
		c1.2,0.1,2.1,0.2,3.1,0.2c3.5,0,7.1,0.2,10.5-0.1c4.6-0.4,8.8-5.2,8.9-9.8c0.2-4.5-3.4-9.2-8.3-9.7c-4.7-0.5-9.4-0.1-14.3-0.1
		C472.2,577.7,472.2,584,472.2,590.6z"/>
	<path stroke="#000000" stroke-width="1.514" stroke-miterlimit="10" d="M21.7,570.8c0,6.5,0,12.4,0,18.8c6,0,11.9,0,17.8,0
		c3.7,0,7.3,0.1,11,0c2.5,0,3.7,1.1,3.6,3.6c-0.1,4-0.1,8.1,0,12.1c0.1,2.8-1.2,3.8-3.9,3.7c-8.6-0.1-17.1,0-25.7,0
		c-0.8,0-1.7,0.1-2.9,0.3c0,8.5,0,16.7,0,25c0,10.5,1,9.4-9.6,9.4c-2.3,0-4.5-0.1-6.8,0c-3.4,0.3-4.4-1.3-4.4-4.5
		c0.1-27.9,0.1-55.7,0-83.6c0-3.1,0.9-4.5,4.3-4.5c17.1,0.1,34.3,0.1,51.4,0c3,0,4.1,1,3.9,3.9c-0.2,3.1,0,6.3,0,9.5
		c0,6.1,0,6.1-6.3,6.1c-9.3,0-18.7,0-28,0C24.7,570.8,23.4,570.8,21.7,570.8z"/>
</g>
</svg>
