<?xml version="1.0" encoding="utf-8"?>
<!-- Generator: Adobe Illustrator 18.0.0, SVG Export Plug-In . SVG Version: 6.00 Build 0)  -->
<!DOCTYPE svg PUBLIC "-//W3C//DTD SVG 1.1//EN" "http://www.w3.org/Graphics/SVG/1.1/DTD/svg11.dtd">
<svg version="1.1" id="Layer_1" xmlns="http://www.w3.org/2000/svg" xmlns:xlink="http://www.w3.org/1999/xlink" x="0px" y="0px"
	 viewBox="0 0 1200 1200" enable-background="new 0 0 1200 1200" xml:space="preserve">
<path fill="#333333" d="M1154.8,175.8v861c0,6.5-1.2,13-3.4,19.1c-22.1,60.1-60.6,100.9-131.4,101c-281.4,0.3-562.8,0.3-844.2,0
	c-63.3-0.1-110.3-36.6-128.7-97.4c-0.1-0.5-0.3-0.9-0.5-1.4c-3.5-9.8-5.6-20.1-5.6-30.5c0-288,0-575.9,0-863.9
	c0-3.3,0.6-6.6,1.6-9.8c21.6-63,60.6-105.7,133.1-105.8c281.4-0.4,562.8-0.4,844.2,0c63.8,0.1,110,36.1,128.7,97.4
	c0.3,0.9,0.6,1.8,1,2.7C1153.3,157,1154.8,166.4,1154.8,175.8z M198,517.2c-16.6,0-30,13.4-30,30c0,1.1,0,2.3,0,3.4
	c0,138.7-0.1,277.4,0,416.1c0,52.7,10.3,63.1,62.2,63.1c244.8,0.1,489.5,0.1,734.3,0c49.6,0,61.9-12.1,62-60.6
	c0.1-140.7,0.1-281.5,0-422.2c0-0.1,0-0.2,0-0.3c0-16.3-13.4-29.4-29.7-29.4h-31.2c-18,0-31.8,15.7-29.8,33.5
	c28,245.9-168.5,386.5-318.6,391c-93,2.8-175.6-23.4-244.4-85.8c-92-83.4-125.4-186.9-110.7-305.3c2.2-17.8-11.8-33.6-29.8-33.6H198
	z M388.9,600.4c-0.5,116.6,92,211.2,207.8,212.3c114.8,1.2,209.9-93.5,210.5-209.7c0.6-115.7-94.1-211-209.3-210.8
	C483.6,392.4,389.4,486.3,388.9,600.4z M920.5,177.2c-19.4,0-38.8-0.4-58.1,0.1c-32.3,0.9-48.7,16.9-49.3,49.3
	c-0.7,38.7-0.8,77.5,0.1,116.2c0.7,30.6,17.1,46.9,47.9,47.6c39.7,0.8,79.5,0.9,119.3-0.1c29-0.7,45.2-17,45.9-46.2
	c1-40.8,1-81.6-0.1-122.3c-0.7-27.8-17-42.9-44.5-44.4C961.3,176.4,940.9,177.3,920.5,177.2z"/>
</svg>
