<?xml version="1.0" encoding="utf-8"?>
<!-- Generator: Adobe Illustrator 18.0.0, SVG Export Plug-In . SVG Version: 6.00 Build 0)  -->
<!DOCTYPE svg PUBLIC "-//W3C//DTD SVG 1.1//EN" "http://www.w3.org/Graphics/SVG/1.1/DTD/svg11.dtd">
<svg version="1.1" id="Layer_1" xmlns="http://www.w3.org/2000/svg" xmlns:xlink="http://www.w3.org/1999/xlink" x="0px" y="0px"
	 viewBox="0 0 1200 1200" enable-background="new 0 0 1200 1200" xml:space="preserve">
<path fill="#333333" d="M538.2,865.5c70.8,92.9,198.7,75,274.9,28.7c31.9-19.4,59.5-43.9,81.1-74.3c68.7-96.7,93.9-205.8,74.9-321
	C949.3,378.9,874.5,296.6,760.9,257c-145.4-50.6-285-32.1-407.7,64C265.7,389.5,221.4,482.8,225,595.4
	c1.9,60.2,16.7,117.4,61.6,161.2c14.4,14,32.7,24.5,50.5,34.3c14.1,7.8,24.3,2.2,29.2-13c1.9-6,2.4-12.5,4.7-18.3
	c10.5-26.5,6.9-48.2-11.4-72.4c-31.1-41.1-30.9-90.5-22.8-139.5C358.9,414,473.3,317.8,627.2,327.1c42.1,2.6,82.4,12.1,118.6,34.6
	c56.9,35.5,87.1,88.7,91.7,154.3c5.6,78.5-6.8,154.7-43.7,225.2c-23.4,44.8-55.6,80.9-108,92.4c-52.2,11.5-103.9-17-111.2-64.7
	c-3.2-20.9,1.5-43.9,6.6-65c12-49.6,27.5-98.3,39.4-147.9c3.7-15.3,2.9-32.8-0.2-48.5c-9.1-46.7-49.9-70.3-95.4-56.2
	c-46.7,14.5-67.8,51.5-78.6,95.2c-10,40.8-5.7,81.5,7.4,121.5c2.4,7.5,3.4,16.5,1.7,24c-23.2,101.1-48.1,201.8-70,303.1
	c-6.8,31.6-6,64.9-8.5,97.4c-0.4,5.2-0.1,10.4-0.1,15.9C172.8,1028.4-15.6,770.8,61.2,464.9c77-306.9,394.7-494,710-393.9
	c296.2,94,463.4,416.3,352.9,720.2c-109.9,302.5-430.2,422.7-681.1,342.6C500.9,1053.7,511.4,957.1,538.2,865.5z"/>
</svg>
