<svg xmlns="http://www.w3.org/2000/svg" xmlns:xlink="http://www.w3.org/1999/xlink" version="1.1" id="Layer_1" x="0px" y="0px" viewBox="0 0 111.5 20.7" enable-background="new 0 0 111.5 20.7" xml:space="preserve">
<g>
	<path d="M67.7 11.2c-0.3 0.6-0.6 1.1-0.8 1.6c-1.2 2.4-2.5 4.7-3.7 7.1c-0.2 0.4-0.4 0.8-1 0.8c-0.6 0-0.8-0.4-1.1-0.8 c-1.5-2.8-3-5.7-4.6-8.5c-0.1 0.9-0.3 1.9-0.4 2.8c-0.3 1.8-0.5 3.6-0.8 5.4c-0.1 0.7-0.4 0.9-1.1 0.9c-0.8 0-1.7 0-2.5 0 c-0.8 0-1-0.2-0.9-1c0.5-3 1-6 1.5-9c0.5-3.1 1-6.2 1.6-9.3c0.1-0.4 0-0.9 0.7-1c0.6-0.1 0.9 0.2 1.1 0.7c1.9 3.6 3.8 7.2 5.8 10.8 c0.2 0.3 0.4 0.7 0.6 1.1c0.2-0.3 0.3-0.6 0.5-0.8c2-3.7 4-7.4 5.9-11c0.1-0.3 0.4-0.6 0.6-0.7c0.6-0.3 1.1 0 1.2 0.8 c0.6 3.3 1.1 6.6 1.7 9.9c0.5 2.8 0.9 5.6 1.4 8.4c0.2 1 0.1 1.2-0.9 1.2c-0.8 0-1.6 0-2.4 0c-0.8 0.1-1.1-0.3-1.2-1 c-0.3-2.4-0.7-4.8-1-7.2C67.8 11.9 67.8 11.6 67.7 11.2z"/>
	<path d="M37.4 12.6c0 2.3 0 4.5 0 6.7c0 1-0.1 1.1-1.1 1.1c-0.9 0-1.8 0-2.6 0c-0.6 0-0.8-0.3-0.8-0.8c0-6.1 0-12.3 0-18.4 c0-0.6 0.3-0.9 0.9-0.8c2.8 0 5.5 0 8.3 0c2.8 0 5.2 1.8 5.9 4.5c0.7 2.6-0.3 5.3-2.7 6.8c-0.4 0.2-0.8 0.4-1.2 0.7 c0.5 0.9 1 1.8 1.5 2.7c0.7 1.4 1.5 2.7 2.2 4.1c0.5 0.9 0.2 1.2-0.7 1.2c-1 0-2 0-3 0c-0.6 0-0.8-0.2-1.1-0.7c-1-2-2-3.9-2.9-5.9 C39.2 12.4 39.2 12.4 37.4 12.6z M37.4 8.9c1.5 0 2.9 0 4.3 0c1 0 2-1.1 2.1-2.1c0.1-0.9-0.7-2.1-1.6-2.2c-1.6-0.1-3.1 0-4.7 0 C37.4 6 37.4 7.4 37.4 8.9z"/>
	<path d="M93.2 7.2c0 1.8 0 3.6 0 5.4c0 4.5-3.5 8-8.2 8c-4.5 0-8.1-3.5-8.1-7.9c0-3.8 0-7.6 0-11.4c0-0.8 0.3-1 1-1 c0.9 0.1 1.8 0 2.7 0c0.7 0 1 0.3 0.9 1c0 3.7 0 7.3 0 11c0 2.2 1.5 3.8 3.5 3.8c2 0 3.5-1.6 3.5-3.7c0-3.7 0-7.3 0-11 c0-0.8 0.2-1 1-1c0.9 0.1 1.9 0 2.8 0c0.6 0 0.9 0.2 0.9 0.9C93.2 3.2 93.2 5.2 93.2 7.2z"/>
	<path d="M20.6 4.6c0 1.2 0 2.3 0 3.5c0.6 0 1.1 0 1.7 0c1.5 0 3 0 4.4 0c0.6 0 0.9 0.2 0.9 0.9c0 0.8 0 1.7 0 2.5 c0 0.6-0.3 0.9-0.9 0.9c-1.7 0-3.4 0-5.2 0c-0.3 0-0.6 0-0.9 0c0 1.3 0 2.5 0 3.8c0.3 0 0.6 0 0.9 0c2.2 0 4.4 0 6.6 0 c0.6 0 0.9 0.2 0.8 0.8c0 0.9 0 1.8 0 2.7c0 0.6-0.2 0.8-0.8 0.8c-3.8 0-7.5 0-11.3 0c-0.6 0-0.8-0.3-0.8-0.9c0-6.1 0-12.3 0-18.4 c0-0.6 0.2-0.8 0.8-0.8c3.8 0 7.5 0 11.3 0c0.6 0 0.8 0.2 0.8 0.8c0 0.8 0 1.7 0 2.5c0 0.7-0.2 0.9-0.9 0.9c-2.2 0-4.3 0-6.5 0 C21.4 4.6 21 4.6 20.6 4.6z"/>
	<path d="M102.2 13.1c0 2.1 0 4.1 0 6.2c0 1-0.1 1.1-1.1 1.1c-0.8 0-1.6 0-2.5 0c-0.7 0-0.9-0.2-0.9-0.9c0-1.2 0-2.3 0-3.5 c0-4.8 0-9.7 0-14.5c0-1.1 0-1.1 1.1-1.1c2.1 0 4.2 0 6.3 0c3.6 0 6.4 2.8 6.4 6.3c0 3.6-2.8 6.4-6.4 6.4 C104.1 13.1 103.2 13.1 102.2 13.1z M102.2 8.9c0.3 0 0.5 0 0.7 0c0.8 0 1.5 0 2.3 0c1-0.1 1.9-1.1 1.9-2.1c0-1-0.7-2-1.8-2.1 c-1-0.1-2 0-3.1 0C102.2 6.1 102.2 7.5 102.2 8.9z"/>
	<path d="M4.5 4.6c0 1.4 0 2.7 0 4.1c1.3 0 2.6 0 3.9 0c0.8 0 1.6 0 2.4 0c0.5 0 0.8 0.2 0.8 0.8c0 0.9 0 1.7 0 2.6 c0 0.6-0.3 0.8-0.8 0.8c-1.9 0-3.7 0-5.6 0c-0.2 0-0.4 0-0.6 0.1c0 1.8 0 3.6 0 5.4c0 2.3 0.2 2-2.1 2c-0.5 0-1 0-1.5 0 c-0.7 0.1-1-0.3-1-1c0-6 0-12.1 0-18.1c0-0.7 0.2-1 0.9-1c3.7 0 7.4 0 11.2 0c0.6 0 0.9 0.2 0.9 0.9c0 0.7 0 1.4 0 2 c0 1.3 0 1.3-1.4 1.3c-2 0-4 0-6.1 0C5.2 4.6 4.9 4.6 4.5 4.6z"/>
</g>
</svg>
